<?xml version="1.0" encoding="iso-8859-1"?>
<!-- Generator: Adobe Illustrator 19.0.0, SVG Export Plug-In . SVG Version: 6.00 Build 0)  -->
<svg version="1.1" id="Layer_1" xmlns="http://www.w3.org/2000/svg" xmlns:xlink="http://www.w3.org/1999/xlink" x="0px" y="0px"
	 viewBox="0 0 512.017 512.017" style="enable-background:new 0 0 512.017 512.017;" xml:space="preserve">
<g>
	<g>
		<g>
			<path d="M196.271,324.284c4.71,0,8.533-3.823,8.533-8.533V24.346c29.995,21.188,102.4,81.724,102.4,171.938
				c0,36.932-29.363,76.8-76.8,76.8c-4.71,0-8.533,3.823-8.533,8.533c0,4.71,3.823,8.533,8.533,8.533
				c57.975,0,93.867-48.725,93.867-93.867c0-123.008-118.716-192.256-123.767-195.14c-2.637-1.502-5.879-1.502-8.516,0.026
				c-2.628,1.527-4.25,4.343-4.25,7.381v307.2C187.738,320.461,191.561,324.284,196.271,324.284z"/>
			<path d="M366.938,85.35H393.4c1.109,5.436,3.277,10.479,6.246,14.959l-18.748,18.748c-3.337,3.328-3.337,8.73,0,12.066
				c1.664,1.664,3.849,2.5,6.033,2.5s4.369-0.836,6.033-2.5l18.748-18.748c4.471,2.97,9.523,5.137,14.959,6.246v26.462
				c0,4.71,3.823,8.533,8.533,8.533s8.533-3.823,8.533-8.533v-26.462c5.436-1.109,10.487-3.277,14.959-6.246l18.748,18.748
				c1.664,1.664,3.849,2.5,6.033,2.5s4.369-0.836,6.033-2.5c3.337-3.337,3.337-8.738,0-12.066l-18.748-18.748
				c2.97-4.48,5.137-9.523,6.246-14.959l26.47-0.009c4.719,0,8.533-3.814,8.533-8.533c0-4.71-3.823-8.533-8.542-8.533l-26.462,0.009
				c-1.109-5.436-3.277-10.479-6.246-14.95l18.756-18.765c3.328-3.337,3.328-8.738-0.009-12.075
				c-3.328-3.32-8.738-3.328-12.066,0.008l-18.748,18.756c-4.471-2.97-9.515-5.137-14.95-6.246l-0.017-26.479
				C443.721,3.823,439.906,0,435.196,0h-0.008c-4.71,0.009-8.525,3.831-8.525,8.542l0.009,26.47
				c-5.427,1.109-10.47,3.277-14.95,6.238l-18.773-18.748c-3.328-3.319-8.73-3.328-12.066,0.009
				c-3.328,3.337-3.328,8.738,0.008,12.066l18.756,18.739c-2.961,4.471-5.137,9.523-6.246,14.967h-26.462
				c-4.71,0-8.533,3.823-8.533,8.533S362.227,85.35,366.938,85.35z M435.204,51.217c14.106,0,25.583,11.469,25.591,25.574v0.026
				v0.026c-0.009,14.097-11.469,25.557-25.566,25.566h-0.026h-0.026c-14.106-0.009-25.574-11.486-25.574-25.591
				C409.604,62.703,421.09,51.217,435.204,51.217z"/>
			<path d="M42.671,136.55h102.4c4.71,0,8.533-3.823,8.533-8.533s-3.823-8.533-8.533-8.533h-102.4c-4.71,0-8.533,3.823-8.533,8.533
				S37.961,136.55,42.671,136.55z"/>
			<path d="M93.871,85.35h51.2c4.71,0,8.533-3.823,8.533-8.533s-3.823-8.533-8.533-8.533h-51.2c-4.71,0-8.533,3.823-8.533,8.533
				S89.161,85.35,93.871,85.35z"/>
			<path d="M501.943,494.396c-2.219,0.367-4.574,0.555-7.006,0.555c-19.61,0-26.283-11.955-26.505-12.348
				c-1.425-2.85-4.344-4.608-7.526-4.659c-3.328-0.043-6.161,1.741-7.68,4.548c-0.273,0.503-6.946,12.459-26.556,12.459
				s-26.283-11.955-26.496-12.348c-1.434-2.85-4.352-4.608-7.535-4.659c-3.328-0.043-6.161,1.741-7.68,4.548
				c-0.273,0.503-6.946,12.459-26.556,12.459s-26.283-11.955-26.496-12.348c-1.434-2.85-4.352-4.608-7.535-4.659
				c-3.319-0.043-6.161,1.741-7.68,4.548c-0.273,0.503-6.946,12.459-26.556,12.459s-26.283-11.955-26.505-12.348
				c-1.425-2.85-4.343-4.608-7.526-4.659c-3.319-0.043-6.161,1.741-7.68,4.548c-0.273,0.503-6.946,12.459-26.556,12.459
				c-19.61,0-26.283-11.955-26.505-12.348c-1.425-2.85-4.343-4.608-7.526-4.659c-3.319-0.043-6.161,1.741-7.68,4.548
				c-0.273,0.503-6.946,12.459-26.556,12.459c-19.61,0-26.283-11.955-26.496-12.348c-1.434-2.85-4.352-4.608-7.535-4.659
				c-3.311-0.043-6.161,1.741-7.68,4.548c-0.273,0.503-6.946,12.459-26.556,12.459c-19.61,0-26.283-11.955-26.505-12.348
				c-1.417-2.85-4.343-4.608-7.526-4.659c-3.311-0.043-6.161,1.741-7.68,4.548c-0.273,0.503-6.946,12.459-26.556,12.459
				c-2.458,0-4.608-0.179-6.972-0.58c-4.659-0.785-9.054,2.338-9.839,6.989c-0.794,4.642,2.338,9.045,6.989,9.839
				c3.294,0.555,6.417,0.819,9.822,0.819c16.888,0,27.733-6.4,34.133-12.254c6.4,5.854,17.246,12.254,34.133,12.254
				c16.888,0,27.733-6.4,34.133-12.254c6.4,5.854,17.246,12.254,34.133,12.254c16.887,0,27.733-6.4,34.133-12.254
				c6.4,5.854,17.246,12.254,34.133,12.254c16.887,0,27.733-6.4,34.133-12.254c6.4,5.854,17.246,12.254,34.133,12.254
				s27.733-6.4,34.133-12.254c6.4,5.854,17.246,12.254,34.133,12.254s27.733-6.4,34.133-12.254
				c6.4,5.854,17.246,12.254,34.133,12.254s27.733-6.4,34.133-12.254c6.4,5.854,17.246,12.254,34.133,12.254
				c3.362,0,6.647-0.265,9.796-0.777c4.642-0.776,7.791-5.163,7.023-9.813C510.989,496.777,506.628,493.645,501.943,494.396z"/>
			<path d="M145.071,170.684H76.804c-4.71,0-8.533,3.823-8.533,8.533c0,4.71,3.823,8.533,8.533,8.533h68.267
				c4.71,0,8.533-3.823,8.533-8.533C153.604,174.507,149.781,170.684,145.071,170.684z"/>
			<path d="M503.471,307.217h-102.4c-13.099,0-22.46,10.274-23.484,11.443c-0.247,0.282-0.478,0.58-0.683,0.887l-17.067,25.6
				c-2.611,3.925-1.553,9.225,2.364,11.836c3.917,2.62,9.207,1.545,11.836-2.364l16.683-25.02c1.724-1.766,6.084-5.316,10.351-5.316
				h89.523c-8.841,19.712-18.995,36.676-29.833,51.2h-51.157c-4.71,0-8.533,3.823-8.533,8.533s3.823,8.533,8.533,8.533h37.129
				c-27.725,30.541-57.958,46.66-81.468,51.362c-4.625,0.93-7.62,5.427-6.69,10.044c0.802,4.053,4.369,6.861,8.354,6.861
				c0.555,0,1.118-0.051,1.681-0.171c43.17-8.627,106.462-50.927,142.788-141.722c1.05-2.628,0.725-5.615-0.862-7.962
				C508.949,308.625,506.304,307.217,503.471,307.217z"/>
			<path d="M65.574,460.382c0.896,0.299,1.801,0.435,2.697,0.435c3.576,0,6.904-2.261,8.098-5.837
				c1.493-4.471-0.93-9.301-5.402-10.795c-16.265-5.419-38.426-26.786-48.512-51.635h233.549c4.71,0,8.533-3.823,8.533-8.533
				s-3.823-8.533-8.533-8.533H17.779c-0.418-2.842-0.708-5.692-0.708-8.533v-8.533h307.2v49.621
				c-7.322-2.603-13.065-8.422-15.59-15.787c3.985-0.725,7.057-4.045,7.057-8.235c0-4.71-3.823-8.533-8.533-8.533h-17.067
				c-4.71,0-8.533,3.823-8.533,8.533s3.823,8.533,8.533,8.533H291c3.968,19.447,21.197,34.133,41.805,34.133
				c20.608,0,37.837-14.686,41.805-34.133h0.862c4.71,0,8.533-3.823,8.533-8.533s-3.823-8.533-8.533-8.533h-17.067
				c-4.71,0-8.533,3.823-8.533,8.533c0,4.19,3.072,7.509,7.057,8.235c-2.526,7.364-8.269,13.184-15.59,15.795v-58.163
				c0-4.71-3.823-8.533-8.533-8.533H8.538c-4.71,0-8.533,3.823-8.533,8.533v17.067C0.004,407.262,35.247,450.27,65.574,460.382z"/>
		</g>
	</g>
</g>
<g>
</g>
<g>
</g>
<g>
</g>
<g>
</g>
<g>
</g>
<g>
</g>
<g>
</g>
<g>
</g>
<g>
</g>
<g>
</g>
<g>
</g>
<g>
</g>
<g>
</g>
<g>
</g>
<g>
</g>
</svg>
