<?xml version="1.0" encoding="iso-8859-1"?>
<!-- Generator: Adobe Illustrator 19.0.0, SVG Export Plug-In . SVG Version: 6.00 Build 0)  -->
<svg version="1.1" id="Layer_1" xmlns="http://www.w3.org/2000/svg" xmlns:xlink="http://www.w3.org/1999/xlink" x="0px" y="0px"
	 viewBox="0 0 511.998 511.998" style="enable-background:new 0 0 511.998 511.998;" xml:space="preserve">
<g>
	<g>
		<path d="M440.531,4.565c-0.718-0.718-1.514-1.374-2.372-1.935c-0.843-0.562-1.748-1.046-2.7-1.436
			c-0.936-0.39-1.918-0.687-2.919-0.89c-2.013-0.406-4.072-0.406-6.086,0c-1,0.203-1.984,0.499-2.919,0.89
			c-0.952,0.39-1.857,0.874-2.7,1.436c-0.858,0.562-1.654,1.217-2.372,1.935s-1.374,1.514-1.935,2.372
			c-0.56,0.843-1.046,1.748-1.436,2.7c-0.39,0.936-0.702,1.92-0.89,2.919c-0.203,0.999-0.311,2.029-0.311,3.044
			s0.108,2.045,0.311,3.044c0.187,0.999,0.499,1.982,0.89,2.934c0.39,0.936,0.876,1.842,1.436,2.685
			c0.562,0.858,1.217,1.654,1.935,2.372c0.718,0.718,1.514,1.374,2.372,1.935c0.843,0.562,1.748,1.046,2.7,1.436
			c0.937,0.39,1.918,0.702,2.919,0.905c0.999,0.203,2.029,0.297,3.044,0.297c1.013,0,2.045-0.094,3.042-0.297
			c1-0.203,1.984-0.515,2.919-0.905c0.952-0.39,1.857-0.874,2.7-1.436c0.858-0.562,1.654-1.217,2.372-1.935
			c2.903-2.903,4.575-6.93,4.575-11.035S443.436,7.468,440.531,4.565z"/>
	</g>
</g>
<g>
	<g>
		<path d="M381.335,85.838l26.09-26.09c6.095-6.095,6.095-15.978,0-22.075c-6.096-6.095-15.976-6.095-22.075,0l-42.499,42.499
			c-22.298-22.184-53.01-35.917-86.872-35.917c-38.418,0-72.777,17.678-95.395,45.318c-9.215-2.452-18.692-3.715-28.315-3.715
			c-60.862,0-110.377,49.515-110.377,110.377c0,22.346,6.577,43.65,19.047,61.963v27.063c0,72.264,45.869,134.013,110.021,157.668
			l-1.344,1.033c-13.092,10.063-18.118,26.665-12.805,42.299s19.417,25.736,35.93,25.736h166.481
			c16.512,0,30.615-10.102,35.93-25.736c5.315-15.633,0.289-32.237-12.803-42.299l-1.344-1.033
			c64.151-23.656,110.02-85.406,110.02-157.668v-27.072c12.491-18.325,19.081-39.645,19.081-62.014
			C490.106,135.851,441.457,86.705,381.335,85.838z M164.072,163.261c0.017-0.395,0.042-0.79,0.066-1.186
			c0.066-1.11,0.148-2.215,0.253-3.314c0.03-0.318,0.055-0.637,0.087-0.954c0.147-1.403,0.323-2.797,0.532-4.181
			c0.026-0.178,0.061-0.354,0.089-0.532c0.195-1.239,0.417-2.469,0.66-3.691c0.056-0.282,0.114-0.563,0.173-0.844
			c0.91-4.33,2.115-8.552,3.612-12.636c0.008-0.022,0.016-0.045,0.025-0.067c12.923-35.201,46.782-60.383,86.411-60.383
			c39.631,0,73.491,25.184,86.417,60.388c0.008,0.019,0.014,0.039,0.022,0.058c1.497,4.086,2.705,8.311,3.615,12.643
			c0.058,0.279,0.116,0.559,0.172,0.838c0.245,1.227,0.468,2.461,0.663,3.704c0.028,0.173,0.061,0.346,0.087,0.52
			c0.211,1.383,0.385,2.778,0.532,4.181c0.033,0.32,0.058,0.641,0.089,0.961c0.103,1.097,0.187,2.199,0.253,3.307
			c0.023,0.395,0.047,0.791,0.066,1.188c0.064,1.403,0.108,2.813,0.108,4.231c0,1.762-0.053,3.515-0.15,5.26
			c-0.033,0.582-0.098,1.158-0.14,1.737c-0.086,1.157-0.17,2.315-0.298,3.462c-0.078,0.69-0.187,1.37-0.279,2.057
			c-0.139,1.027-0.272,2.056-0.445,3.075c-0.123,0.726-0.275,1.444-0.415,2.166c-0.187,0.965-0.372,1.931-0.588,2.886
			c-0.169,0.74-0.362,1.472-0.548,2.205c-0.234,0.924-0.47,1.848-0.732,2.763c-0.212,0.74-0.446,1.47-0.677,2.202
			c-0.281,0.893-0.567,1.784-0.874,2.666c-0.256,0.734-0.529,1.459-0.804,2.185c-0.326,0.865-0.662,1.726-1.015,2.58
			c-0.298,0.721-0.61,1.436-0.927,2.149c-0.373,0.84-0.757,1.675-1.155,2.504c-0.339,0.706-0.687,1.405-1.044,2.101
			c-0.418,0.816-0.852,1.625-1.295,2.429c-0.378,0.685-0.762,1.367-1.158,2.042c-0.467,0.794-0.949,1.58-1.441,2.36
			c-0.415,0.66-0.83,1.32-1.263,1.97c-0.514,0.774-1.049,1.534-1.587,2.293c-0.45,0.632-0.894,1.266-1.361,1.889
			c-0.565,0.754-1.153,1.491-1.742,2.229c-0.481,0.601-0.954,1.206-1.45,1.797c-0.62,0.737-1.266,1.455-1.909,2.173
			c-0.504,0.563-0.999,1.133-1.517,1.684c-0.688,0.732-1.408,1.441-2.123,2.154c-0.512,0.509-1.008,1.03-1.534,1.528
			c-0.793,0.754-1.62,1.48-2.444,2.208c-0.484,0.429-0.951,0.871-1.444,1.291c-0.045,0.037-0.094,0.073-0.137,0.111H196.463
			c-0.047-0.041-0.098-0.078-0.147-0.117c-0.47-0.4-0.913-0.821-1.374-1.228c-0.846-0.748-1.695-1.494-2.51-2.269
			c-0.517-0.49-1.005-1.002-1.509-1.503c-0.724-0.721-1.452-1.438-2.148-2.179c-0.513-0.546-1.002-1.11-1.5-1.665
			c-0.649-0.726-1.302-1.448-1.926-2.191c-0.493-0.585-0.963-1.188-1.439-1.784c-0.592-0.741-1.183-1.483-1.751-2.24
			c-0.464-0.618-0.908-1.25-1.355-1.879c-0.542-0.762-1.078-1.526-1.595-2.304c-0.431-0.648-0.844-1.303-1.258-1.96
			c-0.492-0.784-0.977-1.57-1.445-2.368c-0.395-0.673-0.777-1.352-1.153-2.035c-0.445-0.805-0.88-1.617-1.3-2.436
			c-0.356-0.693-0.702-1.391-1.041-2.095c-0.4-0.83-0.785-1.669-1.158-2.511c-0.315-0.71-0.626-1.422-0.922-2.14
			c-0.354-0.857-0.69-1.722-1.018-2.589c-0.273-0.723-0.546-1.445-0.801-2.176c-0.309-0.885-0.595-1.779-0.877-2.675
			c-0.229-0.73-0.464-1.458-0.674-2.195c-0.264-0.918-0.499-1.845-0.735-2.772c-0.186-0.73-0.378-1.458-0.546-2.195
			c-0.219-0.958-0.403-1.926-0.59-2.894c-0.139-0.719-0.292-1.434-0.414-2.16c-0.173-1.019-0.307-2.049-0.445-3.079
			c-0.092-0.684-0.201-1.364-0.279-2.052c-0.128-1.149-0.212-2.307-0.298-3.463c-0.044-0.579-0.108-1.153-0.141-1.736
			c-0.097-1.743-0.15-3.498-0.15-5.26C163.964,166.073,164.008,164.664,164.072,163.261z M53.107,196.241
			c0-43.654,35.512-79.166,79.163-79.166c3.668,0,7.308,0.251,10.904,0.749c-0.206,0.465-0.379,0.943-0.579,1.411
			c-0.178,0.415-0.342,0.835-0.513,1.253c-0.596,1.444-1.18,2.894-1.722,4.358c-0.184,0.499-0.351,1.008-0.531,1.511
			c-0.498,1.405-0.99,2.811-1.436,4.233c-0.19,0.607-0.357,1.225-0.538,1.837c-0.398,1.341-0.798,2.681-1.149,4.036
			c-0.194,0.744-0.354,1.501-0.535,2.251c-0.298,1.245-0.607,2.49-0.866,3.744c-0.189,0.913-0.339,1.842-0.507,2.763
			c-0.204,1.114-0.426,2.226-0.599,3.348c-0.175,1.127-0.3,2.269-0.443,3.406c-0.119,0.938-0.262,1.871-0.359,2.813
			c-0.144,1.397-0.231,2.809-0.328,4.22c-0.048,0.699-0.123,1.394-0.159,2.095c-0.109,2.116-0.165,4.247-0.165,6.39
			c0,1.444,0.033,2.881,0.081,4.317c0.014,0.431,0.036,0.86,0.056,1.289c0.047,1.044,0.105,2.087,0.176,3.125
			c0.031,0.442,0.059,0.883,0.095,1.324c0.1,1.26,0.219,2.514,0.356,3.765c0.019,0.165,0.031,0.331,0.05,0.496
			c0.161,1.403,0.35,2.8,0.557,4.192c0.061,0.406,0.13,0.812,0.194,1.217c0.162,1.016,0.336,2.029,0.521,3.037
			c0.083,0.446,0.165,0.894,0.253,1.341c0.22,1.116,0.454,2.227,0.704,3.335c0.061,0.268,0.114,0.54,0.176,0.808
			c0.314,1.35,0.654,2.692,1.013,4.028c0.103,0.381,0.214,0.759,0.318,1.138c0.275,0.985,0.56,1.967,0.86,2.944
			c0.136,0.443,0.273,0.887,0.414,1.328c0.323,1.013,0.66,2.02,1.008,3.022c0.112,0.323,0.219,0.648,0.334,0.969
			c0.462,1.292,0.946,2.577,1.452,3.852c0.134,0.339,0.276,0.673,0.414,1.01c0.39,0.961,0.793,1.918,1.208,2.87
			c0.187,0.428,0.376,0.854,0.568,1.28c0.42,0.933,0.854,1.859,1.297,2.781c0.165,0.343,0.325,0.69,0.493,1.032
			c0.607,1.23,1.232,2.451,1.879,3.66c0.145,0.27,0.298,0.537,0.445,0.807c0.523,0.957,1.057,1.907,1.604,2.852
			c0.231,0.396,0.464,0.79,0.699,1.185c0.517,0.866,1.046,1.726,1.584,2.582c0.217,0.343,0.429,0.688,0.648,1.029
			c0.748,1.16,1.512,2.31,2.301,3.446c0.022,0.031,0.042,0.066,0.064,0.097H64.79C57.125,225.225,53.107,211.053,53.107,196.241z
			 M345.594,476.218c-0.579,1.704-2.179,4.565-6.374,4.565H172.74c-4.195,0-5.794-2.861-6.373-4.565
			c-0.579-1.704-1.055-4.946,2.271-7.503l21.502-16.526c0.075,0.008,0.148,0.014,0.223,0.022c1.316,0.145,2.636,0.275,3.96,0.389
			c0.243,0.022,0.487,0.045,0.73,0.066c1.258,0.103,2.521,0.19,3.786,0.265c0.292,0.017,0.584,0.039,0.876,0.056
			c1.228,0.067,2.461,0.116,3.698,0.156c0.311,0.011,0.623,0.026,0.933,0.036c1.519,0.041,3.042,0.064,4.57,0.064h94.128
			c1.528,0,3.051-0.023,4.57-0.064c0.314-0.008,0.627-0.025,0.941-0.036c1.233-0.041,2.463-0.089,3.69-0.155
			c0.295-0.016,0.588-0.039,0.883-0.056c1.263-0.075,2.522-0.162,3.777-0.264c0.247-0.02,0.492-0.044,0.738-0.066
			c1.322-0.114,2.639-0.243,3.954-0.389c0.073-0.013,0.148-0.019,0.223-0.027l21.502,16.526
			C346.649,471.271,346.173,474.512,345.594,476.218z M439.806,285.263c0,68.287-50.306,125.043-115.807,135.157
			c-0.061,0.008-0.12,0.009-0.181,0.019c-1.645,0.253-3.301,0.473-4.962,0.667c-0.126,0.014-0.253,0.03-0.379,0.044
			c-3.22,0.365-6.465,0.612-9.713,0.748c-0.334,0.014-0.668,0.026-1.002,0.037c-1.573,0.055-3.145,0.091-4.717,0.091h-94.128
			c-1.572,0-3.143-0.036-4.717-0.091c-0.334-0.011-0.668-0.025-1-0.037c-3.25-0.136-6.496-0.382-9.718-0.748
			c-0.123-0.014-0.247-0.028-0.368-0.042c-1.664-0.194-3.321-0.414-4.968-0.668c-0.061-0.009-0.122-0.009-0.183-0.019
			c-50.475-7.795-91.921-43.291-108.281-90.413h198.266c8.619,0,15.608-6.988,15.608-15.608c0-8.62-6.989-15.608-15.608-15.608
			H72.823c-0.439-4.451-0.668-8.962-0.668-13.527v-16.399h118.812h130.026h118.812V285.263z M447.166,237.646h-89.779
			c0.017-0.025,0.034-0.052,0.052-0.076c0.799-1.152,1.575-2.318,2.332-3.495c0.2-0.309,0.392-0.621,0.587-0.932
			c0.563-0.893,1.116-1.792,1.656-2.699c0.217-0.364,0.432-0.727,0.645-1.093c0.578-0.993,1.139-1.993,1.689-3.001
			c0.122-0.223,0.248-0.443,0.368-0.667c0.66-1.231,1.297-2.474,1.914-3.726c0.147-0.297,0.286-0.598,0.429-0.896
			c0.47-0.974,0.927-1.954,1.372-2.942c0.173-0.385,0.345-0.773,0.515-1.16c0.442-1.008,0.868-2.023,1.281-3.044
			c0.115-0.287,0.237-0.571,0.351-0.858c0.515-1.299,1.008-2.608,1.478-3.925c0.097-0.27,0.186-0.542,0.279-0.813
			c0.37-1.06,0.726-2.124,1.066-3.195c0.13-0.406,0.256-0.813,0.381-1.221c0.314-1.022,0.613-2.049,0.901-3.081
			c0.095-0.342,0.195-0.68,0.287-1.024c0.364-1.355,0.709-2.717,1.027-4.088c0.052-0.225,0.097-0.453,0.148-0.677
			c0.261-1.152,0.504-2.307,0.732-3.468c0.083-0.425,0.162-0.851,0.242-1.277c0.19-1.03,0.368-2.065,0.534-3.103
			c0.062-0.392,0.128-0.782,0.187-1.175c0.209-1.398,0.4-2.802,0.56-4.213c0.017-0.148,0.028-0.298,0.045-0.446
			c0.14-1.264,0.259-2.535,0.361-3.808c0.034-0.439,0.064-0.879,0.095-1.319c0.072-1.041,0.131-2.084,0.178-3.129
			c0.019-0.429,0.041-0.857,0.056-1.288c0.048-1.434,0.081-2.873,0.081-4.317c0-2.145-0.056-4.275-0.165-6.391
			c-0.037-0.738-0.117-1.469-0.169-2.205c-0.095-1.374-0.18-2.75-0.32-4.111c-0.101-0.985-0.25-1.959-0.375-2.939
			c-0.139-1.093-0.259-2.191-0.428-3.276c-0.18-1.163-0.409-2.315-0.621-3.47c-0.162-0.88-0.304-1.767-0.485-2.641
			c-0.267-1.288-0.582-2.564-0.888-3.841c-0.173-0.716-0.326-1.441-0.512-2.152c-0.357-1.38-0.765-2.745-1.171-4.113
			c-0.175-0.585-0.334-1.178-0.517-1.761c-0.451-1.438-0.947-2.858-1.45-4.278c-0.175-0.49-0.337-0.985-0.518-1.472
			c-0.542-1.467-1.125-2.919-1.723-4.364c-0.173-0.418-0.339-0.84-0.515-1.255c-0.204-0.481-0.384-0.971-0.596-1.45
			c3.616-0.504,7.276-0.757,10.963-0.757c43.651,0,79.163,35.512,79.163,79.161C458.89,211.012,454.858,225.206,447.166,237.646z"/>
	</g>
</g>
<g>
	<g>
		<path d="M335.8,303.367c-0.718-0.718-1.514-1.374-2.374-1.951c-0.843-0.562-1.747-1.046-2.685-1.436
			c-0.951-0.39-1.935-0.687-2.919-0.89c-2.013-0.406-4.089-0.406-6.103,0c-0.999,0.203-1.982,0.499-2.917,0.89
			c-0.949,0.39-1.854,0.874-2.697,1.436c-0.858,0.577-1.654,1.233-2.372,1.951c-2.903,2.903-4.575,6.914-4.575,11.035
			c0,1.014,0.109,2.045,0.312,3.044c0.203,0.999,0.499,1.982,0.89,2.919c0.39,0.952,0.874,1.857,1.436,2.7
			c0.56,0.858,1.217,1.654,1.935,2.372c0.718,0.718,1.514,1.374,2.372,1.935c0.843,0.562,1.748,1.046,2.7,1.436
			c0.936,0.39,1.918,0.687,2.917,0.89c1,0.203,2.031,0.312,3.044,0.312c1.015,0,2.046-0.109,3.059-0.312
			c0.983-0.203,1.968-0.499,2.919-0.89c0.938-0.39,1.842-0.874,2.685-1.436c0.86-0.562,1.656-1.217,2.374-1.935
			c0.718-0.718,1.374-1.514,1.951-2.372c0.562-0.843,1.046-1.748,1.436-2.7c0.39-0.937,0.687-1.92,0.89-2.919
			c0.203-0.999,0.295-2.029,0.295-3.044C340.373,310.281,338.718,306.27,335.8,303.367z"/>
	</g>
</g>
<g>
</g>
<g>
</g>
<g>
</g>
<g>
</g>
<g>
</g>
<g>
</g>
<g>
</g>
<g>
</g>
<g>
</g>
<g>
</g>
<g>
</g>
<g>
</g>
<g>
</g>
<g>
</g>
<g>
</g>
</svg>
