<?xml version="1.0" encoding="iso-8859-1"?>
<!-- Generator: Adobe Illustrator 19.0.0, SVG Export Plug-In . SVG Version: 6.00 Build 0)  -->
<svg version="1.1" id="Layer_1" xmlns="http://www.w3.org/2000/svg" xmlns:xlink="http://www.w3.org/1999/xlink" x="0px" y="0px"
	 viewBox="0 0 512.001 512.001" style="enable-background:new 0 0 512.001 512.001;" xml:space="preserve">
<g>
	<g>
		<path d="M222.26,444.633c-2.062-4.186-7.124-5.911-11.312-3.851c-5.41,2.662-9.682,4.764-19.184,4.764
			c-9.492,0-13.77-2.103-19.187-4.765c-6.196-3.047-13.22-6.5-26.642-6.5c-13.415,0-20.437,3.453-26.631,6.499
			c-5.415,2.663-9.693,4.766-19.187,4.766c-9.491,0-13.77-2.103-19.186-4.765c-6.198-3.047-13.225-6.5-26.653-6.5
			c-13.422,0-20.445,3.453-26.642,6.5c-5.417,2.663-9.694,4.765-19.187,4.765c-4.666,0-8.449,3.783-8.449,8.449
			c0,4.666,3.784,8.45,8.45,8.45c13.422,0,20.445-3.453,26.642-6.5c5.417-2.663,9.694-4.765,19.187-4.765
			c9.5,0,13.78,2.104,19.199,4.768c6.196,3.046,13.22,6.498,26.64,6.498c13.424,0,20.447-3.454,26.643-6.501
			c5.413-2.662,9.69-4.764,19.174-4.764c9.492,0,13.77,2.103,19.187,4.765c6.196,3.047,13.22,6.5,26.642,6.5
			c13.435,0,20.453-3.454,26.646-6.501C222.597,453.884,224.32,448.819,222.26,444.633z"/>
	</g>
</g>
<g>
	<g>
		<path d="M503.552,472.021H8.452c-4.666,0-8.449,3.783-8.449,8.449c0,4.666,3.783,8.449,8.449,8.449h495.1
			c4.666,0,8.449-3.783,8.449-8.449C512.001,475.803,508.218,472.021,503.552,472.021z"/>
	</g>
</g>
<g>
	<g>
		<path d="M503.551,439.914h-7.411V262.852c0-4.666-3.783-8.449-8.449-8.449c-4.666,0-8.449,3.783-8.449,8.449v27.601h-4.881
			v-12.956c0-4.666-3.783-8.449-8.449-8.449c-4.666,0-8.449,3.783-8.449,8.449v12.956h-4.881v-12.956
			c0-4.666-3.783-8.449-8.449-8.449c-4.666,0-8.449,3.783-8.449,8.449v12.956h-4.883v-27.601c0-4.666-3.783-8.449-8.449-8.449
			c-4.666,0-8.449,3.783-8.449,8.449v63.279h-10.139v-11.078c0-4.666-3.783-8.449-8.449-8.449c-4.666,0-8.449,3.783-8.449,8.449
			v11.078h-7.886v-11.078c0-4.666-3.783-8.449-8.449-8.449c-4.666,0-8.449,3.783-8.449,8.449v11.078H351.94v-63.279
			c0-4.666-3.783-8.449-8.449-8.449c-4.666,0-8.449,3.783-8.449,8.449v27.601h-4.881v-12.956c0-4.666-3.783-8.449-8.449-8.449
			c-4.666,0-8.449,3.783-8.449,8.449v12.956h-4.881v-60.52c4.523-0.163,8.143-3.871,8.143-8.433v-72.43
			c0-4.666-3.783-8.449-8.449-8.449h-0.363l-11.942-20.821V91.808c0-0.826-0.121-1.648-0.359-2.44l-18.179-60.277
			c-1.077-3.568-4.363-6.009-8.09-6.009s-7.014,2.441-8.09,6.009l-18.179,60.277c-0.239,0.791-0.359,1.613-0.359,2.44v27.991
			l-11.94,20.821h-0.363c-4.666,0-8.449,3.783-8.449,8.449v72.43c0,4.563,3.62,8.271,8.143,8.433v131.683h-98.052v-10.892
			c0-4.666-3.783-8.449-8.449-8.449c-4.666,0-8.449,3.783-8.449,8.449v10.892H8.452c-4.666,0-8.449,3.783-8.449,8.449
			c0,4.666,3.783,8.449,8.449,8.449h106.501v22.108c-14.459-9.478-31.352-14.58-49.027-14.58c-23.955,0-46.49,9.341-63.449,26.302
			c-3.3,3.3-3.3,8.65,0,11.948c3.3,3.3,8.65,3.3,11.948,0c13.769-13.769,32.059-21.352,51.501-21.352s37.732,7.583,51.501,21.352
			c1.584,1.585,3.733,2.475,5.974,2.475s4.39-0.89,5.974-2.475c13.769-13.769,32.059-21.352,51.501-21.352
			c18.3,0,35.577,6.722,49.026,18.995v26.428c0,4.666,3.783,8.449,8.449,8.449h265.2c4.666,0,8.449-3.783,8.449-8.449
			C512,443.697,508.217,439.914,503.551,439.914z M229.903,400.621c-14.459-9.478-31.351-14.578-49.026-14.578
			s-34.566,5.101-49.026,14.58v-22.107h98.052V400.621z M269.141,60.793l6.807,22.566h-13.612L269.141,60.793z M259.411,100.258
			h19.46v13.343h-19.46V100.258z M255.856,130.499h26.57l5.804,10.121h-38.178L255.856,130.499z M238.658,157.519h60.966v55.532
			h-60.966V157.519z M278.15,254.403c-4.666,0-8.449,3.783-8.449,8.449v177.062h-22.9v-21.593c0-0.001,0-0.003,0-0.006V229.949
			h44.681v60.504h-4.883v-27.601C286.599,258.186,282.816,254.403,278.15,254.403z M335.042,439.915h-48.442V307.352h48.442V439.915
			z M413.901,439.915H351.94V343.03h61.961V439.915z M479.242,439.915h-48.442V307.352h48.442V439.915z"/>
	</g>
</g>
<g>
	<g>
		<path d="M299.931,316.364c-4.666,0-8.449,3.783-8.449,8.449v27.52c0,4.666,3.783,8.449,8.449,8.449
			c4.666,0,8.449-3.783,8.449-8.449v-27.52C308.38,320.147,304.597,316.364,299.931,316.364z"/>
	</g>
</g>
<g>
	<g>
		<path d="M321.711,316.364c-4.666,0-8.449,3.783-8.449,8.449v27.52c0,4.666,3.783,8.449,8.449,8.449
			c4.666,0,8.449-3.783,8.449-8.449v-27.52C330.16,320.147,326.377,316.364,321.711,316.364z"/>
	</g>
</g>
<g>
	<g>
		<path d="M299.931,380.095c-4.666,0-8.449,3.783-8.449,8.449v27.521c0,4.666,3.783,8.449,8.449,8.449
			c4.666,0,8.449-3.783,8.449-8.449v-27.521C308.38,383.878,304.597,380.095,299.931,380.095z"/>
	</g>
</g>
<g>
	<g>
		<path d="M321.711,380.095c-4.666,0-8.449,3.783-8.449,8.449v27.521c0,4.666,3.783,8.449,8.449,8.449
			c4.666,0,8.449-3.783,8.449-8.449v-27.521C330.16,383.878,326.377,380.095,321.711,380.095z"/>
	</g>
</g>
<g>
	<g>
		<path d="M444.131,316.364c-4.666,0-8.449,3.783-8.449,8.449v27.52c0,4.666,3.783,8.449,8.449,8.449
			c4.666,0,8.449-3.783,8.449-8.449v-27.52C452.581,320.147,448.798,316.364,444.131,316.364z"/>
	</g>
</g>
<g>
	<g>
		<path d="M465.911,316.364c-4.666,0-8.449,3.783-8.449,8.449v27.52c0,4.666,3.783,8.449,8.449,8.449
			c4.666,0,8.449-3.783,8.449-8.449v-27.52C474.36,320.147,470.577,316.364,465.911,316.364z"/>
	</g>
</g>
<g>
	<g>
		<path d="M444.131,380.095c-4.666,0-8.449,3.783-8.449,8.449v27.521c0,4.666,3.783,8.449,8.449,8.449
			c4.666,0,8.449-3.783,8.449-8.449v-27.521C452.581,383.878,448.798,380.095,444.131,380.095z"/>
	</g>
</g>
<g>
	<g>
		<path d="M465.911,380.095c-4.666,0-8.449,3.783-8.449,8.449v27.521c0,4.666,3.783,8.449,8.449,8.449
			c4.666,0,8.449-3.783,8.449-8.449v-27.521C474.36,383.878,470.577,380.095,465.911,380.095z"/>
	</g>
</g>
<g>
	<g>
		<path d="M269.141,160.101c-13.886,0-25.183,11.297-25.183,25.183s11.297,25.183,25.183,25.183s25.183-11.297,25.183-25.183
			S283.027,160.101,269.141,160.101z M269.141,193.57c-4.568,0-8.285-3.717-8.285-8.285s3.717-8.285,8.285-8.285
			c4.568,0,8.285,3.716,8.285,8.285S273.709,193.57,269.141,193.57z"/>
	</g>
</g>
<g>
	<g>
		<path d="M370.528,356.924c-4.666,0-8.449,3.783-8.449,8.449v52.573c0,4.666,3.783,8.449,8.449,8.449
			c4.666,0,8.449-3.783,8.449-8.449v-52.573C378.978,360.707,375.195,356.924,370.528,356.924z"/>
	</g>
</g>
<g>
	<g>
		<path d="M395.313,356.924c-4.666,0-8.449,3.783-8.449,8.449v52.573c0,4.666,3.783,8.449,8.449,8.449
			c4.666,0,8.449-3.783,8.449-8.449v-52.573C403.762,360.707,399.979,356.924,395.313,356.924z"/>
	</g>
</g>
<g>
	<g>
		<path d="M176.136,94.01h-41.135c1.017-2.768,1.573-5.755,1.573-8.872c0-14.209-11.56-25.769-25.769-25.769H51.093
			c-14.209,0-25.77,11.56-25.77,25.769c0,14.211,11.561,25.77,25.77,25.77h0.874c-1.017,2.767-1.573,5.756-1.573,8.871
			c0,14.209,11.56,25.77,25.77,25.77h99.971c14.209,0,25.769-11.56,25.769-25.77C201.905,105.569,190.346,94.01,176.136,94.01z
			 M176.136,128.651H76.165c-4.892,0-8.872-3.98-8.872-8.872s3.98-8.871,8.872-8.871c4.666,0,8.449-3.783,8.449-8.449
			c0-4.666-3.783-8.449-8.449-8.449H51.093c-4.892,0-8.872-3.98-8.872-8.872c0-4.892,3.98-8.871,8.872-8.871h59.711
			c4.892,0,8.871,3.979,8.871,8.871c0,4.892-3.979,8.872-8.871,8.872c-4.666,0-8.449,3.783-8.449,8.449
			c0,4.666,3.783,8.449,8.449,8.449h65.332c4.892,0,8.871,3.979,8.871,8.871S181.028,128.651,176.136,128.651z"/>
	</g>
</g>
<g>
	<g>
		<path d="M469.25,161.542c0.31-1.441,0.472-2.935,0.472-4.467c0-11.715-9.531-21.246-21.246-21.246H374.61
			c-11.715,0-21.247,9.531-21.247,21.246c0,11.716,9.531,21.247,21.247,21.247h27.472c-0.293,1.404-0.447,2.858-0.447,4.347
			c0,11.715,9.531,21.247,21.246,21.247h44.12c11.715,0,21.247-9.531,21.247-21.247C488.248,171.713,479.912,162.669,469.25,161.542
			z M467.001,187.018h-44.12c-2.397,0-4.347-1.95-4.347-4.349c0-2.397,1.95-4.347,4.347-4.347c4.666,0,8.449-3.783,8.449-8.449
			c0-4.666-3.783-8.449-8.449-8.449h-48.272c-2.397,0-4.349-1.95-4.349-4.349c0.001-2.396,1.951-4.347,4.35-4.347h73.867
			c2.397,0,4.347,1.95,4.347,4.347c0,2.397-1.95,4.349-4.347,4.349c-4.666,0-8.449,3.783-8.449,8.449
			c0,4.666,3.783,8.449,8.449,8.449h18.524c2.397,0,4.349,1.95,4.349,4.347C471.349,185.066,469.399,187.018,467.001,187.018z"/>
	</g>
</g>
<g>
</g>
<g>
</g>
<g>
</g>
<g>
</g>
<g>
</g>
<g>
</g>
<g>
</g>
<g>
</g>
<g>
</g>
<g>
</g>
<g>
</g>
<g>
</g>
<g>
</g>
<g>
</g>
<g>
</g>
</svg>
