<?xml version="1.0" encoding="iso-8859-1"?>
<!-- Generator: Adobe Illustrator 19.0.0, SVG Export Plug-In . SVG Version: 6.00 Build 0)  -->
<svg version="1.1" id="Capa_1" xmlns="http://www.w3.org/2000/svg" xmlns:xlink="http://www.w3.org/1999/xlink" x="0px" y="0px"
	 viewBox="0 0 418.088 418.088" style="enable-background:new 0 0 418.088 418.088;" xml:space="preserve">
<path id="XMLID_1283_" d="M163.886,100.711c16.411,0,29.762-13.352,29.762-29.762s-13.351-29.762-29.762-29.762
	c-16.41,0-29.761,13.352-29.761,29.762S147.476,100.711,163.886,100.711z M163.886,55.188c8.691,0,15.762,7.07,15.762,15.762
	s-7.07,15.762-15.762,15.762c-8.69,0-15.761-7.07-15.761-15.762S155.195,55.188,163.886,55.188z M163.886,184.722
	c16.411,0,29.762-13.351,29.762-29.762c0-16.41-13.351-29.761-29.762-29.761c-16.41,0-29.761,13.351-29.761,29.761
	C134.125,171.371,147.476,184.722,163.886,184.722z M163.886,139.199c8.691,0,15.762,7.07,15.762,15.761
	c0,8.691-7.07,15.762-15.762,15.762c-8.69,0-15.761-7.07-15.761-15.762C148.125,146.27,155.195,139.199,163.886,139.199z
	 M266.284,376.571c0,3.866-3.134,7-7,7h-16.98c-3.866,0-7-3.134-7-7s3.134-7,7-7h16.98
	C263.15,369.571,266.284,372.705,266.284,376.571z M344.515,100.711c16.411,0,29.762-13.352,29.762-29.762
	s-13.351-29.762-29.762-29.762c-16.41,0-29.761,13.352-29.761,29.762S328.104,100.711,344.515,100.711z M344.515,55.188
	c8.691,0,15.762,7.07,15.762,15.762s-7.07,15.762-15.762,15.762c-8.69,0-15.761-7.07-15.761-15.762S335.824,55.188,344.515,55.188z
	 M73.571,41.188c-16.411,0-29.762,13.352-29.762,29.762s13.351,29.762,29.762,29.762s29.762-13.352,29.762-29.762
	S89.982,41.188,73.571,41.188z M73.571,86.711c-8.691,0-15.762-7.07-15.762-15.762s7.07-15.762,15.762-15.762
	s15.762,7.07,15.762,15.762S82.263,86.711,73.571,86.711z M276.69,352.099c0,3.866-3.134,7-7,7h-37.794c-3.866,0-7-3.134-7-7
	s3.134-7,7-7h37.794C273.557,345.099,276.69,348.232,276.69,352.099z M73.571,125.199c-16.411,0-29.762,13.351-29.762,29.761
	c0,16.411,13.351,29.762,29.762,29.762s29.762-13.351,29.762-29.762C103.333,138.55,89.982,125.199,73.571,125.199z M73.571,170.722
	c-8.691,0-15.762-7.07-15.762-15.762c0-8.69,7.07-15.761,15.762-15.761s15.762,7.07,15.762,15.761
	C89.333,163.651,82.263,170.722,73.571,170.722z M418.088,16.864v192.181c0,9.299-7.564,16.864-16.863,16.864h-72.732
	c-3.866,0-7-3.134-7-7s3.134-7,7-7h72.732c1.552,0,2.863-1.312,2.863-2.864V16.864c0-1.553-1.312-2.864-2.863-2.864H16.865
	C15.313,14,14,15.312,14,16.864v192.181c0,1.553,1.313,2.864,2.865,2.864h156.23c3.866,0,7,3.134,7,7s-3.134,7-7,7H16.865
	c-9.3,0-16.865-7.565-16.865-16.864V16.864C0,7.565,7.565,0,16.865,0h384.359C410.523,0,418.088,7.565,418.088,16.864z
	 M281.574,176.789h-1.873v-11.962c6.949-2.084,12.026-8.539,12.026-16.158v-5.525c0-9.299-7.565-16.864-16.864-16.864h-48.14
	c-9.299,0-16.864,7.565-16.864,16.864v5.525c0,7.619,5.077,14.074,12.026,16.158v11.962h-1.872c-9.068,0-16.474,6.478-16.857,14.744
	l-9.865,211.158c-0.172,3.686,1.215,7.265,3.902,10.08c3.225,3.379,7.946,5.316,12.953,5.316h81.294
	c5.007,0,9.729-1.938,12.954-5.315c2.688-2.814,4.074-6.394,3.903-10.083l-9.867-211.153
	C298.047,183.267,290.643,176.789,281.574,176.789z M223.859,143.144c0-1.553,1.312-2.864,2.864-2.864h48.14
	c1.553,0,2.864,1.312,2.864,2.864v5.525c0,1.553-1.312,2.865-2.864,2.865h-48.14c-1.553,0-2.864-1.313-2.864-2.865V143.144z
	 M265.701,165.534v11.255h-29.815v-11.255H265.701z M217.141,192.186c0.02-0.418,1.021-1.396,2.873-1.396h61.561
	c1.852,0,2.853,0.979,2.872,1.398l2.467,52.794c-0.121,0.516-0.185,1.053-0.185,1.604c0,8.328-6.774,15.104-15.104,15.104
	c-8.327,0-15.102-6.775-15.102-15.104c0-3.866-3.134-7-7-7s-7,3.134-7,7v53.909c0,8.327-6.774,15.103-15.105,15.103
	c-8.326,0-15.101-6.775-15.101-15.103c0-0.522-0.058-1.031-0.166-1.521L217.141,192.186z M291.44,404.088h-81.294
	c-1.493,0-2.538-0.646-2.858-1.012l3.672-78.592c4.685,3.224,10.357,5.113,16.462,5.113c16.047,0,29.102-13.056,29.102-29.103
	v-29.039c4.405,2.686,9.578,4.233,15.104,4.233c6.113,0,11.792-1.895,16.48-5.128l6.192,132.515
	C293.98,403.442,292.936,404.088,291.44,404.088z M344.515,184.722c16.411,0,29.762-13.351,29.762-29.762
	c0-16.41-13.351-29.761-29.762-29.761c-16.41,0-29.761,13.351-29.761,29.761C314.754,171.371,328.104,184.722,344.515,184.722z
	 M344.515,139.199c8.691,0,15.762,7.07,15.762,15.761c0,8.691-7.07,15.762-15.762,15.762c-8.69,0-15.761-7.07-15.761-15.762
	C328.754,146.27,335.824,139.199,344.515,139.199z M254.199,100.711c16.412,0,29.764-13.352,29.764-29.762
	s-13.352-29.762-29.764-29.762c-16.41,0-29.761,13.352-29.761,29.762S237.789,100.711,254.199,100.711z M254.199,55.188
	c8.692,0,15.764,7.07,15.764,15.762s-7.071,15.762-15.764,15.762c-8.69,0-15.761-7.07-15.761-15.762S245.509,55.188,254.199,55.188z
	"/>
<g>
</g>
<g>
</g>
<g>
</g>
<g>
</g>
<g>
</g>
<g>
</g>
<g>
</g>
<g>
</g>
<g>
</g>
<g>
</g>
<g>
</g>
<g>
</g>
<g>
</g>
<g>
</g>
<g>
</g>
</svg>
