<?xml version="1.0" encoding="iso-8859-1"?>
<!-- Generator: Adobe Illustrator 18.0.0, SVG Export Plug-In . SVG Version: 6.00 Build 0)  -->
<!DOCTYPE svg PUBLIC "-//W3C//DTD SVG 1.1//EN" "http://www.w3.org/Graphics/SVG/1.1/DTD/svg11.dtd">
<svg version="1.1" id="Capa_1" xmlns="http://www.w3.org/2000/svg" xmlns:xlink="http://www.w3.org/1999/xlink" x="0px" y="0px"
	 viewBox="0 0 449.9 449.9" style="enable-background:new 0 0 449.9 449.9;" xml:space="preserve">
<path id="XMLID_853_" d="M386.176,288.674c0-15.951-12.978-28.928-28.929-28.928h-14.332c3.364-8.038,5.934-16.828,7.55-26.172
	c3.816-22.055,1.962-45.066-5.359-66.546c-8.521-24.998-23.828-46.839-45.496-64.915c-15.757-13.145-32.351-32.753-21.924-51.52
	c5.831-10.494,5.67-23.442-0.419-33.792C271.169,6.438,259.929,0,247.934,0c-1.532,0-3.081,0.105-4.603,0.311
	c-12.307,1.672-30.501,6.742-47.305,21.404c-11.312,9.87-20.113,22.38-26.333,37.387c-3.733-0.427-7.589-0.642-11.551-0.642
	c-1.321,0-2.669,0.024-4.007,0.071c-15.63,0.55-28.829,11.632-32.096,26.949c-3.148,14.758,3.732,29.689,16.809,36.905
	c-0.496,1.103-1.151,2.441-2.014,4.04c-2.917,5.406-6.95,11.535-11.22,18.024c-8.913,13.544-19.015,28.895-23.67,45.321
	c-8.834,31.172-3.06,54.378,5.174,69.976H92.653c-15.951,0-28.929,12.977-28.929,28.928c0,54.305,26.99,102.422,68.257,131.65
	c-6.6,1.574-11.514,7.494-11.514,14.576c0,8.284,6.716,15,15,15h89.483h89.483c8.284,0,15-6.716,15-15
	c0-7.082-4.914-13.003-11.515-14.576C359.186,391.096,386.176,342.979,386.176,288.674z M130.807,197.95
	c10.416-36.755,67.3-79.901,22.727-101.731c-3.763-1.843-2.531-7.559,1.657-7.706c0.962-0.034,1.946-0.052,2.95-0.052
	c10.484,0,23.019,2.03,32.032,9.947c0.014-0.113,0.015-0.228,0.031-0.341c7.775-54.774,41.293-65.87,57.162-68.026
	c0.192-0.026,0.382-0.039,0.567-0.039c2.997,0,5.05,3.284,3.529,6.023c-7.759,13.965-19.159,49.01,28.931,89.127
	c51.861,43.263,48.258,104.739,28.758,134.596h-21.205c4.565-30.509-7.44-62.74-28.623-70.097c-0.412-0.143-0.829-0.21-1.241-0.21
	c-1.568,0-3.048,0.978-3.743,2.485c-4.765,10.322-14.015,14.159-20.449,15.583c-0.301,0.067-0.597,0.098-0.886,0.098
	c-2.624,0-4.668-2.594-3.842-5.259c7.24-23.353,0.172-53.909-17.545-67.23c-0.738-0.555-1.559-0.803-2.361-0.803
	c-2.228,0-4.315,1.911-4.09,4.464c1.709,19.398-0.678,33.708-18.25,51.465c-15.486,15.65-24.852,45.309-18.698,69.504h-23.864
	C131.774,247.756,122.183,228.38,130.807,197.95z M198.559,256.094c-4.669-10.443-1.774-26.219,4.147-37.07
	c0.834,1.64,1.806,3.221,2.912,4.721c6.396,8.678,16.633,13.86,27.385,13.86c2.472,0,4.953-0.272,7.373-0.808
	c5.883-1.302,11.353-3.312,16.33-5.966c0.046,0.156,0.092,0.312,0.137,0.471c2.543,8.914,2.728,19.336,0.583,28.445h-57.488
	C199.548,258.513,199.095,257.293,198.559,256.094z M224.95,419.9c-72,0-130.644-58.288-131.222-130.154h262.443
	C355.594,361.613,296.95,419.9,224.95,419.9z"/>
<g>
</g>
<g>
</g>
<g>
</g>
<g>
</g>
<g>
</g>
<g>
</g>
<g>
</g>
<g>
</g>
<g>
</g>
<g>
</g>
<g>
</g>
<g>
</g>
<g>
</g>
<g>
</g>
<g>
</g>
</svg>
